<svg width="109" height="100" viewBox="0 0 109 100" fill="none" xmlns="http://www.w3.org/2000/svg">
<circle cx="50" cy="50" r="50" fill="#F5F5F5"/>
<mask id="mask0_4887_47994" style="mask-type:luminance" maskUnits="userSpaceOnUse" x="0" y="0" width="100" height="100">
<circle cx="50" cy="50" r="50" fill="white"/>
</mask>
<g mask="url(#mask0_4887_47994)">
<mask id="mask1_4887_47994" style="mask-type:luminance" maskUnits="userSpaceOnUse" x="5" y="58" width="118" height="48">
<path fill-rule="evenodd" clip-rule="evenodd" d="M9.1211 65.884C3.75635 72.3633 2.69976 96.2626 13.7008 102.748C24.7018 109.233 78.6077 102.117 76.9819 95.0004C76.9819 95.0004 114.579 97.962 114.579 92.933C114.579 87.9057 125.8 88.2224 121.737 82.248C117.677 76.2736 117.283 65.6002 102.749 62.3746C88.8531 59.2876 80.59 62.104 72.0522 64.97C63.5144 67.8359 65.572 69.9214 55.1713 67.8359C44.7689 65.7471 46.7038 63.3002 39.7509 59.71C37.7882 58.6969 34.9177 58.2316 31.689 58.23C23.4882 58.23 12.9713 61.2345 9.1211 65.884Z" fill="white"/>
</mask>
<g mask="url(#mask1_4887_47994)">
<path fill-rule="evenodd" clip-rule="evenodd" d="M115.376 87.5544L108.2 57.8853C108.2 57.8853 93.2459 51.6667 84.9535 55.6761C76.6626 59.6837 59.6852 70.8505 53.8772 67.6067C48.0708 64.363 40.4097 62.3434 39.7522 62.3484C39.093 62.3533 21.4319 69.0191 21.4319 69.0191L29.4038 79.3427L33.5042 91.0984L94.2371 89.0558L112.049 90.6315" fill="#EEEEEE"/>
</g>
<mask id="mask2_4887_47994" style="mask-type:luminance" maskUnits="userSpaceOnUse" x="5" y="58" width="118" height="48">
<path fill-rule="evenodd" clip-rule="evenodd" d="M13.7008 102.748C24.7018 109.233 78.6077 102.117 76.9819 95.0004C76.9819 95.0004 114.579 97.962 114.579 92.933C114.579 87.9057 125.8 88.2224 121.737 82.248C117.677 76.2736 117.283 65.6002 102.749 62.3746C88.8531 59.2876 80.59 62.104 72.0522 64.97C63.5144 67.8359 65.572 69.9214 55.1713 67.8359C44.7689 65.7471 46.7038 63.3002 39.7509 59.71C37.7882 58.6969 34.9177 58.2316 31.689 58.23C23.4882 58.23 12.9713 61.2345 9.1211 65.884C3.75635 72.3633 2.69976 96.2626 13.7008 102.748Z" fill="white"/>
</mask>
<g mask="url(#mask2_4887_47994)">
<path fill-rule="evenodd" clip-rule="evenodd" d="M16.2172 94.9574C15.6251 94.9574 15.1426 94.4724 15.1426 93.8734V90.6231C15.1426 90.0241 15.6251 89.5391 16.2172 89.5391H114.407C114.999 89.5391 115.48 90.0241 115.48 90.6231V92.6739C115.48 93.9345 114.467 94.9574 113.216 94.9574H16.2172Z" fill="#999999"/>
</g>
<path fill-rule="evenodd" clip-rule="evenodd" d="M85.59 82.4545H57.8045C56.6349 82.4545 55.8093 81.685 56.1795 80.9419L58.4614 76.3499C58.6956 75.8803 59.3492 75.564 60.0864 75.564H83.3048C84.0436 75.564 84.6972 75.8803 84.9314 76.3499L87.2133 80.9419C87.5835 81.685 86.7579 82.4545 85.59 82.4545Z" fill="white"/>
<path fill-rule="evenodd" clip-rule="evenodd" d="M60.0866 76.3885C59.5722 76.3885 59.2511 76.6027 59.1954 76.7181L56.9119 81.3101C56.9381 81.3892 57.251 81.6314 57.8031 81.6314H85.5901C86.1422 81.6314 86.4534 81.3875 86.4862 81.2936L84.1978 76.7181C84.1404 76.6027 83.821 76.3885 83.305 76.3885H60.0866ZM85.5904 83.2789H57.8033C56.8139 83.2789 55.9392 82.8554 55.5215 82.1733C55.2151 81.6757 55.1889 81.0908 55.4461 80.5734L57.7296 75.9814C58.1047 75.2284 59.0286 74.7407 60.0868 74.7407H83.3053C84.3635 74.7407 85.289 75.2284 85.6641 75.9814L87.946 80.5734C88.2048 81.0924 88.177 81.6757 87.8707 82.175C87.4529 82.8554 86.5782 83.2789 85.5904 83.2789Z" fill="#999999"/>
<path fill-rule="evenodd" clip-rule="evenodd" d="M6.67358 58.189L8.06105 80.9481C8.21504 83.4822 10.949 84.9816 13.1506 83.7392L18.884 80.5016L19.7849 69.2184L14.6872 72.6356L14.0663 61.1284" fill="white"/>
<path fill-rule="evenodd" clip-rule="evenodd" d="M11.476 85.008C10.7798 85.008 10.0836 84.8334 9.44643 84.4841C8.15724 83.7772 7.33328 82.4739 7.24318 80.9976L5.85571 58.2402L7.49054 58.1396L8.87801 80.8988C8.9337 81.8033 9.43824 82.6024 10.2311 83.0374C11.0206 83.4708 11.9642 83.4642 12.7488 83.0226L18.1021 79.9991L18.8344 70.8464L13.9463 74.1219L13.2485 61.1746L14.8849 61.084L15.4271 71.1512L20.7379 67.5939L19.6649 81.0059L13.5515 84.4577C12.9028 84.8251 12.1902 85.008 11.476 85.008Z" fill="#999999"/>
<path fill-rule="evenodd" clip-rule="evenodd" d="M65.549 83.1938C65.549 83.1938 67.708 83.1938 72.3799 84.1973C75.4857 84.8679 76.6782 86.8022 77.1287 88.0264C77.3171 88.5372 76.9436 89.0793 76.4014 89.0793H69.8113C69.7867 89.0793 69.7622 89.0826 69.7392 89.0908L63.0361 91.5244" fill="white"/>
<path fill-rule="evenodd" clip-rule="evenodd" d="M63.3145 92.2999L62.7576 90.7494L69.8112 88.2565H76.4013C75.9213 87.1164 74.8435 85.5708 72.2094 85.0041C67.7079 84.0352 65.5685 84.0188 65.5473 84.0188L65.5489 82.3711C65.6406 82.3711 67.8504 82.381 72.5518 83.3926C76.0917 84.1555 77.4202 86.4441 77.8985 87.7392C78.0787 88.2335 78.0083 88.7854 77.7118 89.2171C77.4137 89.6472 76.9239 89.9042 76.4013 89.9042H69.9144L63.3145 92.2999Z" fill="#999999"/>
<path fill-rule="evenodd" clip-rule="evenodd" d="M44.1428 71.5142C44.1428 71.5142 51.5896 74.2872 54.8003 77.7308C57.6113 80.7476 62.7828 82.4645 65.407 82.8978C65.9296 82.9852 66.2899 83.463 66.1998 83.9869C65.9083 85.689 65.2399 89.1458 64.4192 90.6863C64.4192 90.6863 62.9974 93.545 52.9673 89.8098C47.1749 87.6497 45.6761 86.5771 45.6761 86.5771" fill="white"/>
<path fill-rule="evenodd" clip-rule="evenodd" d="M52.6831 90.5817C46.8564 88.4084 45.2658 87.2946 45.2002 87.2468L46.1503 85.9056C46.1602 85.9122 47.7115 86.97 53.2531 89.0361C62.1202 92.3381 63.6993 90.29 63.7157 90.2653C64.2481 89.2619 64.8656 86.9107 65.3931 83.8477L65.2752 83.7109C62.4118 83.238 57.101 81.4042 54.2032 78.2951C51.1629 75.0327 43.9307 72.3141 43.8586 72.286L44.4271 70.7422C44.7383 70.8575 52.0934 73.6223 55.3974 77.1681C58.0167 79.9773 62.8983 81.648 65.5405 82.0863C66.0189 82.1638 66.4349 82.4257 66.7118 82.8162C66.9821 83.1985 67.0869 83.6648 67.0066 84.1278C66.6807 86.0259 66.0058 89.453 65.1408 91.0759C64.9705 91.4203 64.1776 92.5605 61.3077 92.5605C59.4435 92.5605 56.7013 92.0777 52.6831 90.5817Z" fill="#999999"/>
<path fill-rule="evenodd" clip-rule="evenodd" d="M28.9169 73.1636C20.6215 73.1636 14.4918 71.7236 10.2736 68.7973C6.15547 65.9403 3.97843 61.775 3.61477 56.0576L3.31664 51.3816C2.62536 40.5252 9.23346 34.0416 23.521 31.557L24.0779 34.8045C7.64614 37.6615 6.2259 45.5143 6.58629 51.1707L6.88442 55.8484C7.18419 60.5557 8.85178 63.8066 12.1329 66.0836C16.5312 69.1351 23.9289 70.3494 34.1244 69.692C44.8441 69.0017 52.3515 66.8053 56.4386 63.164C59.4248 60.503 60.6731 57.0479 60.37 52.2829L60.0866 47.8292C59.7017 41.8037 57.1921 34.7649 41.0552 33.8307L41.2436 30.542C55.4426 31.3642 62.6748 36.9497 63.3563 47.6183L63.6397 52.072C64.0066 57.8536 62.362 62.2874 58.6107 65.6305C53.8995 69.8288 45.958 72.2327 34.3341 72.9808C32.4355 73.1027 30.6287 73.1636 28.9169 73.1636Z" fill="#999999"/>
<path fill-rule="evenodd" clip-rule="evenodd" d="M41.1488 32.1855C57.6002 33.1379 61.2565 40.4354 61.7217 47.7246L62.0035 52.1766C62.5539 60.7988 58.7666 69.7555 34.2295 71.3356C10.916 72.8382 5.79696 64.5703 5.2482 55.953L4.95171 51.277C4.47174 43.7604 7.48421 36.0164 23.7997 33.1807" fill="white"/>
<path fill-rule="evenodd" clip-rule="evenodd" d="M22.4723 37.5715L22.1758 32.9186C22.0317 30.6464 22.9375 27.7844 28.073 27.0611C29.1918 26.903 30.463 26.7777 31.8521 26.6888C33.3608 26.5915 34.7663 26.5569 36.0358 26.5784C37.42 26.608 41.6364 26.6937 42.5128 31.434L42.5374 31.6301L42.8323 36.26L39.5626 36.4726L39.2743 31.9448C39.0024 30.5822 38.4094 29.9231 35.9686 29.8737C34.7925 29.849 33.4803 29.8836 32.0617 29.9775C30.7545 30.0599 29.5653 30.1785 28.5284 30.3251C25.3226 30.775 25.3996 31.9843 25.4455 32.7093L25.742 37.3623L22.4723 37.5715Z" fill="#999999"/>
<path fill-rule="evenodd" clip-rule="evenodd" d="M24.107 37.4663L23.8105 32.8133C23.6401 30.121 25.6255 29.0682 28.3005 28.6925C29.303 28.5508 30.5087 28.4256 31.9568 28.3317C33.5621 28.2279 34.8988 28.2032 36.0029 28.2262C38.6713 28.2806 40.4044 29.0418 40.9024 31.7341L41.1973 36.3657" fill="white"/>
<path fill-rule="evenodd" clip-rule="evenodd" d="M46.6984 78.585C46.6984 86.4278 40.3786 107.833 32.5813 107.833C24.7839 107.833 18.4641 86.4278 18.4641 78.585C18.4641 70.7421 24.7839 68.5688 32.5813 68.5688C40.3786 68.5688 46.6984 70.7421 46.6984 78.585Z" fill="white"/>
<path fill-rule="evenodd" clip-rule="evenodd" d="M32.5806 69.3921C23.5072 69.3921 19.2825 72.3117 19.2825 78.5844C19.2825 86.5459 25.6056 107.008 32.5806 107.008C39.5557 107.008 45.8787 86.5459 45.8787 78.5844C45.8787 72.3117 41.6541 69.3921 32.5806 69.3921ZM32.5805 108.656C23.8429 108.656 17.6443 85.8519 17.6443 78.5841C17.6443 71.3921 22.67 67.7441 32.5805 67.7441C42.491 67.7441 47.5167 71.3921 47.5167 78.5841C47.5167 85.8519 41.3181 108.656 32.5805 108.656Z" fill="#999999"/>
<path fill-rule="evenodd" clip-rule="evenodd" d="M11.3193 74.7409L15.9715 71.9185L11.3193 74.7409Z" fill="white"/>
<path fill-rule="evenodd" clip-rule="evenodd" d="M11.3201 75.5642C11.0433 75.5642 10.7714 75.4225 10.6174 75.1654C10.3848 74.7749 10.5093 74.2708 10.8959 74.0351L15.5481 71.2127C15.9347 70.9771 16.4392 71.1023 16.6735 71.4928C16.9061 71.8833 16.7816 72.3875 16.395 72.6231L11.7428 75.4455C11.6101 75.5263 11.4643 75.5642 11.3201 75.5642Z" fill="#999999"/>
<path fill-rule="evenodd" clip-rule="evenodd" d="M25.4783 39.2017C25.4783 39.2017 24.8558 46.6837 27.5865 46.6458C29.3819 46.6211 29.2852 40.4671 29.2852 40.4671" fill="#F7F7F7"/>
<path fill-rule="evenodd" clip-rule="evenodd" d="M27.5651 47.4691C26.9492 47.4691 26.389 47.2186 25.9467 46.7425C24.2365 44.8971 24.6133 39.7185 24.6624 39.1319C24.7001 38.6805 25.0851 38.3345 25.547 38.3806C25.9975 38.4185 26.3317 38.8172 26.294 39.2703C26.1351 41.1981 26.2252 44.6252 27.1458 45.6171C27.3129 45.7984 27.4226 45.8214 27.575 45.8214C28.0615 45.5726 28.5054 42.9726 28.4661 40.4797C28.4595 40.0233 28.8199 39.6509 29.272 39.6427C29.6554 39.5966 30.0976 39.9986 30.1042 40.4534C30.1173 41.292 30.1157 45.5463 28.7741 46.9352C28.4432 47.278 28.0353 47.4625 27.5979 47.4691H27.5651Z" fill="#999999"/>
<path fill-rule="evenodd" clip-rule="evenodd" d="M7.42651 51.0083C7.42651 51.0083 7.61653 58.515 10.3276 58.1789C12.1098 57.9581 11.3481 51.8503 11.3481 51.8503" fill="#F7F7F7"/>
<path fill-rule="evenodd" clip-rule="evenodd" d="M10.1529 59.0135C9.62869 59.0135 9.13235 58.8224 8.70644 58.4517C6.80789 56.8057 6.62278 51.6156 6.6064 51.029C6.59657 50.5742 6.95204 50.1969 7.40579 50.1854C7.86118 50.1458 8.23303 50.5347 8.2445 50.9878C8.29528 52.9222 8.75395 56.3196 9.77612 57.2044C9.96451 57.3675 10.1087 57.3774 10.2266 57.3609C10.682 57.0611 10.8425 54.4298 10.5346 51.9533C10.4789 51.5002 10.7983 51.0883 11.2455 51.0323C11.6927 50.9664 12.1039 51.2959 12.1612 51.7474C12.2644 52.5811 12.7214 56.809 11.5387 58.3364C11.2455 58.7137 10.8622 58.9427 10.4264 58.9954C10.3347 59.007 10.243 59.0135 10.1529 59.0135Z" fill="#999999"/>
<path fill-rule="evenodd" clip-rule="evenodd" d="M48.5276 50.8765C48.5276 50.8765 47.9051 58.3585 50.6358 58.3222C52.4312 58.2959 52.3345 52.1435 52.3345 52.1435" fill="#F7F7F7"/>
<path fill-rule="evenodd" clip-rule="evenodd" d="M50.6161 59.1449C49.9969 59.1449 49.4383 58.8945 48.996 58.4167C47.2858 56.5713 47.6626 51.3927 47.7117 50.8061C47.7494 50.3547 48.1377 50.0383 48.5963 50.0548C49.0468 50.0927 49.381 50.4914 49.3433 50.9445C49.1844 52.8723 49.2745 56.3011 50.1935 57.293C50.3638 57.4742 50.5129 57.5088 50.6243 57.4973C51.1092 57.2501 51.5547 54.6501 51.5154 52.1556C51.5089 51.6992 51.8709 51.3268 52.323 51.3186H52.3345C52.7817 51.3186 53.147 51.6794 53.1535 52.1292C53.1666 52.9679 53.165 57.2188 51.8234 58.6095C51.4925 58.9538 51.0846 59.1384 50.6472 59.1449H50.6161Z" fill="#999999"/>
<path fill-rule="evenodd" clip-rule="evenodd" d="M17.3724 77.082L48.0736 77.9503C52.9896 77.9503 56.9751 82.5654 56.9751 88.2565L57.0062 107.022C57.0111 109.712 54.8472 111.894 52.1738 111.886C46.1898 111.866 36.2891 111.785 32.13 111.477C28.4721 111.207 19.8623 109.875 14.9398 109.089C12.8496 108.755 11.3196 106.943 11.3196 104.814V84.0895C11.3196 80.2192 14.029 77.082 17.3724 77.082Z" fill="#999999"/>
</g>
<path fill-rule="evenodd" clip-rule="evenodd" d="M7.87698 43.8043C7.46418 43.8043 7.10871 43.4929 7.06284 43.0711L4.80227 22.271C4.75312 21.8179 5.0791 21.4109 5.52794 21.3615C5.97187 21.3203 6.38139 21.6383 6.43054 22.0898L8.69275 42.8898C8.74026 43.3429 8.41755 43.7499 7.96707 43.7993C7.93595 43.8026 7.90646 43.8043 7.87698 43.8043Z" fill="#999999"/>
<path fill-rule="evenodd" clip-rule="evenodd" d="M11.8201 40.6592C11.4073 40.6592 11.0518 40.3478 11.006 39.926L8.7454 19.1276C8.69626 18.6744 9.0206 18.2675 9.47108 18.218C9.91664 18.1703 10.3245 18.4949 10.3737 18.9463L12.6359 39.7447C12.6834 40.1978 12.3607 40.6048 11.9102 40.6542C11.8791 40.6575 11.8496 40.6592 11.8201 40.6592Z" fill="#999999"/>
<path fill-rule="evenodd" clip-rule="evenodd" d="M16.8843 42.425C16.4715 42.425 16.116 42.1136 16.0702 41.6918L13.8096 20.8917C13.7604 20.4386 14.0864 20.0317 14.5353 19.9822C14.9759 19.9262 15.3887 20.259 15.4379 20.7105L17.7001 41.5105C17.7476 41.9637 17.4249 42.3706 16.9744 42.4201C16.9433 42.4233 16.9138 42.425 16.8843 42.425Z" fill="#999999"/>
<mask id="mask3_4887_47994" style="mask-type:luminance" maskUnits="userSpaceOnUse" x="49" y="16" width="60" height="65">
<path d="M50.1291 31.6604C51.1261 34.5084 56.498 35.2001 58.2042 36.2775C59.9105 37.355 61.6911 40.6457 62.6232 43.3844C63.5553 46.1232 63.621 52.3453 63.6898 54.746C63.7191 55.7648 62.1076 60.5941 61.3421 62.0792C60.6209 63.4785 59.3634 65.2994 59.3634 65.2994L58.2042 68.842L64.8887 80.8622L89.4261 77.6078C89.4261 77.6078 108.997 64.1901 108.338 62.0792C107.678 59.9683 107.019 25.3797 107.019 25.3797C107.019 25.3797 76.0295 17.0179 76.0295 16.6746C76.0295 16.3312 52.6338 20.1681 51.5197 20.3674C50.4057 20.5666 49.1321 28.8124 50.1291 31.6604Z" fill="white"/>
</mask>
<g mask="url(#mask3_4887_47994)">
<path fill-rule="evenodd" clip-rule="evenodd" d="M64.9136 71.3882L66.3485 65.5654C66.5206 64.8668 67.143 64.3774 67.8589 64.3774H86.7773C87.5161 64.3774 88.1549 64.9014 88.3007 65.6313L89.4621 71.3882" fill="#999999"/>
<path fill-rule="evenodd" clip-rule="evenodd" d="M72.2507 66.9706H82.4495V59.7144H72.2507V66.9706Z" fill="#999999"/>
<path fill-rule="evenodd" clip-rule="evenodd" d="M76.8659 60.7058C66.79 60.6992 59.7494 58.9939 55.3397 55.4926C51.7571 52.6471 50.0175 48.7257 50.0208 43.5042L50.024 39.2747C50.0306 29.3607 56.4044 23.8559 69.5109 22.4438L69.8598 25.721C55.0235 27.3176 53.3035 34.223 53.3002 39.278L53.297 43.5075C53.2937 47.7091 54.5878 50.6979 57.3709 52.9058C61.1271 55.888 67.686 57.4039 76.8676 57.4105H76.9282C86.5537 57.4105 93.3878 55.8831 97.2439 52.8728C100.045 50.6864 101.351 47.686 101.354 43.4317L101.357 39.4032C101.36 34.0203 99.5225 27.6126 85.1678 25.8397L85.5675 22.5691C98.4037 24.1541 104.64 29.6622 104.633 39.4065L104.63 43.435C104.627 48.7141 102.868 52.652 99.2522 55.4761C94.7474 58.9955 87.4432 60.7058 76.9298 60.7058H76.8659Z" fill="#999999"/>
<path fill-rule="evenodd" clip-rule="evenodd" d="M85.3675 24.2044C100.13 26.0268 103 32.8135 102.995 39.4057L102.992 43.4326C102.987 51.2277 99.0571 59.0722 76.8674 59.0574C55.7834 59.0442 51.6538 51.2985 51.6587 43.5051L51.662 39.2756C51.6669 32.4773 54.8268 25.6807 69.6843 24.0825" fill="#999999"/>
<path fill-rule="evenodd" clip-rule="evenodd" d="M86.8076 27.9748L83.5314 27.9715L83.5347 23.8886C83.3758 22.7171 82.9171 22.1585 80.8236 21.9773C79.7752 21.8883 78.5483 21.829 77.2444 21.8422C76.1026 21.8422 75.0526 21.8784 74.1222 21.9493C71.3554 22.1569 71.3554 23.1175 71.3554 23.7535L71.3521 27.9632L68.0759 27.96L68.0792 23.7518C68.0792 22.0135 68.8344 19.0395 73.8781 18.6639C74.9068 18.5864 76.078 18.5469 77.3148 18.5469C78.7072 18.5485 79.98 18.5996 81.1021 18.6952C82.3798 18.8056 86.2687 19.1384 86.7994 23.5887L86.8109 23.7864L86.8076 27.9748Z" fill="#999999"/>
<path fill-rule="evenodd" clip-rule="evenodd" d="M84.1883 31.2074C82.2488 30.9652 80.0488 30.8317 77.5523 30.8301C61.0485 30.8202 57.8083 36.9824 57.8034 43.1447L57.8018 46.4927C57.7968 52.6665 61.0305 58.8008 77.5343 58.8123C94.9047 58.8238 97.9811 52.6105 97.9844 46.4351L97.986 43.2468C97.9909 38.0254 95.7451 32.6508 84.1883 31.2074Z" fill="white"/>
<path fill-rule="evenodd" clip-rule="evenodd" d="M68.7203 37.7132C68.7203 38.4662 68.1126 39.0775 67.364 39.0775C66.6154 39.0775 66.0093 38.4662 66.0093 37.7132C66.0093 36.9602 66.6154 36.3506 67.364 36.3506C68.1126 36.3506 68.7203 36.9602 68.7203 37.7132Z" fill="#999999"/>
<path fill-rule="evenodd" clip-rule="evenodd" d="M68.7203 42.3763C68.7203 43.1309 68.1126 43.7405 67.364 43.7405C66.6154 43.7405 66.0093 43.1309 66.0093 42.3763C66.0093 41.6233 66.6154 41.0137 67.364 41.0137C68.1126 41.0137 68.7203 41.6233 68.7203 42.3763Z" fill="#999999"/>
<path fill-rule="evenodd" clip-rule="evenodd" d="M75.0126 45.803C72.259 45.803 70.0181 43.4287 70.0181 40.5091C70.0181 37.5911 72.259 35.2168 75.0126 35.2168C75.4647 35.2168 75.8317 35.5859 75.8317 36.0406C75.8317 36.497 75.4647 36.8645 75.0126 36.8645C73.1616 36.8645 71.6562 38.4989 71.6562 40.5091C71.6562 42.5192 73.1616 44.1553 75.0126 44.1553C75.4647 44.1553 75.8317 44.5244 75.8317 44.9792C75.8317 45.4339 75.4647 45.803 75.0126 45.803Z" fill="#999999"/>
<path fill-rule="evenodd" clip-rule="evenodd" d="M91.5312 50.2756H66.9826C66.5305 50.2756 66.1636 49.9065 66.1636 49.4518C66.1636 48.997 66.5305 48.6279 66.9826 48.6279H91.5312C91.9833 48.6279 92.3502 48.997 92.3502 49.4518C92.3502 49.9065 91.9833 50.2756 91.5312 50.2756Z" fill="#999999"/>
<path fill-rule="evenodd" clip-rule="evenodd" d="M81.7935 54.8195H67.3635C66.9114 54.8195 66.5444 54.4505 66.5444 53.9957C66.5444 53.541 66.9114 53.1719 67.3635 53.1719H81.7935C82.2456 53.1719 82.6126 53.541 82.6126 53.9957C82.6126 54.4505 82.2456 54.8195 81.7935 54.8195Z" fill="#999999"/>
<path fill-rule="evenodd" clip-rule="evenodd" d="M69.7144 27.9619L69.716 23.7522C69.7176 21.3202 71.5687 20.4882 73.9996 20.3069C74.9104 20.2377 76.003 20.1932 77.3119 20.1949C78.7649 20.1965 79.9705 20.2509 80.9616 20.3366C83.363 20.5425 84.8799 21.3301 85.1731 23.7851L85.1698 27.9735" fill="white"/>
<path fill-rule="evenodd" clip-rule="evenodd" d="M70.8364 27.9388L70.8381 24.3452C70.8397 22.2692 72.4188 21.5574 74.4943 21.4025C75.2724 21.3432 76.2045 21.3086 77.3217 21.3086C78.5617 21.3102 79.5904 21.3564 80.439 21.4289C82.4882 21.6035 83.7823 22.2758 84.0313 24.3732L84.0297 27.947" fill="white"/>
<path fill-rule="evenodd" clip-rule="evenodd" d="M66.3944 72.9456C65.577 72.9456 64.9136 72.28 64.9136 71.4561V71.321C64.9136 70.4988 65.577 69.8315 66.3944 69.8315H87.9813C88.8003 69.8315 89.4621 70.4988 89.4621 71.321V71.4561C89.4621 72.28 88.8003 72.9456 87.9813 72.9456H66.3944Z" fill="#999999"/>
</g>
</svg>
